<svg width="17" height="25" viewBox="0 0 17 25" fill="none" xmlns="http://www.w3.org/2000/svg">
<path d="M7.22233 19.6002L3.18465 15.5197L3.1846 15.5196C2.94521 15.2778 2.61943 15.141 2.27865 15.141C1.93787 15.141 1.6121 15.2778 1.3727 15.5196C1.13348 15.7613 1 16.088 1 16.4276C1 16.7672 1.13349 17.0939 1.3727 17.3356L7.59361 23.6205C7.71206 23.7404 7.85305 23.8359 8.00863 23.9011C8.16424 23.9664 8.33123 24 8.5 24C8.66877 24 8.83577 23.9664 8.99137 23.9011C9.14681 23.836 9.28769 23.7406 9.40608 23.6208L9.40595 23.6209L7.22233 19.6002ZM7.22233 19.6002V2.28566C7.22233 1.94632 7.35571 1.61987 7.59475 1.37837C7.83396 1.13671 8.15948 1 8.5 1C8.84052 1 9.16605 1.13671 9.40525 1.37838C9.64429 1.61987 9.77767 1.94633 9.77767 2.28566V19.6002L13.8153 15.5197L13.8154 15.5196C14.0548 15.2778 14.3806 15.141 14.7213 15.141C15.0621 15.141 15.3879 15.2778 15.6273 15.5196C15.8665 15.7613 16 16.088 16 16.4276C16 16.7672 15.8665 17.0939 15.6273 17.3356L9.40639 23.6205L7.22233 19.6002Z" fill="#E0E0E0" stroke="#E0E0E0"/>
</svg>
